# xmcd CD database file
# Generated: Die Jun 18 13:49:24 2002 by KSCD
# 
# Track frame offsets:
#       150
#       13065
#       37330
#       46150
#       65090
#       86807
#       106018
#       117549
#       131439
#       150007
#       172348
#       186703
#
# Disc length: 2793 seconds
#
# Revision: 1
# Processed by: cddbd v1.4PL0 Copyright (c) Steve Scherf et al.
# Submitted via: Kscd 1.3.3
#
DISCID=a90ae70c
DTITLE=No Expectations - blinded
DYEAR=1900
DGENRE=
TTITLE0=Man to Universe
TTITLE1=Sun
TTITLE2=Talkin' to myself
TTITLE3=Blinded
TTITLE4=Behind your face
TTITLE5=More mistakes
TTITLE6=Believin'
TTITLE7=Be
TTITLE8=Still in my head
TTITLE9=Lying on the ground
TTITLE10=How
TTITLE11=Time
EXTD=
EXTT0=
EXTT1=
EXTT2=
EXTT3=
EXTT4=
EXTT5=
EXTT6=
EXTT7=
EXTT8=
EXTT9=
EXTT10=
EXTT11=
PLAYORDER=
